<?xml version="1.0" standalone="no"?>
<!DOCTYPE svg PUBLIC "-//W3C//DTD SVG 20010904//EN"
 "http://www.w3.org/TR/2001/REC-SVG-20010904/DTD/svg10.dtd">
<svg version="1.0" xmlns="http://www.w3.org/2000/svg"
 width="1024.000000pt" height="1024.000000pt" viewBox="0 0 1024.000000 1024.000000"
 preserveAspectRatio="xMidYMid meet">

<g transform="translate(0.000000,1024.000000) scale(0.100000,-0.100000)"
fill="#000000" stroke="none">
<path d="M0 7680 c0 -2553 0 -2560 20 -2560 17 0 20 -7 20 -40 0 -33 3 -40 20
-40 17 0 20 -7 20 -40 l0 -40 -40 0 -40 0 0 -120 c0 -73 4 -120 10 -120 6 0
10 -18 10 -40 0 -38 2 -40 30 -40 28 0 30 -2 30 -40 0 -22 5 -40 10 -40 6 0
10 -22 10 -49 0 -45 3 -52 30 -68 17 -9 30 -23 30 -30 0 -7 5 -13 10 -13 6 0
10 -18 10 -40 0 -29 4 -40 15 -40 11 0 15 -11 15 -40 l0 -40 40 0 40 0 0 -40
c0 -36 3 -40 25 -40 23 0 25 -4 25 -40 l0 -40 40 0 40 0 0 -40 c0 -29 4 -40
15 -40 11 0 15 -11 15 -40 0 -29 -4 -40 -15 -40 -11 0 -15 -11 -15 -40 0 -29
4 -40 15 -40 11 0 15 -11 15 -40 l0 -40 55 0 55 0 0 -55 0 -55 40 0 c22 0 40
-4 40 -10 0 -5 18 -10 40 -10 24 0 40 -5 40 -12 0 -6 14 -24 32 -40 25 -22 41
-28 80 -28 36 0 48 -4 48 -15 0 -8 5 -15 10 -15 6 0 10 -18 10 -40 0 -29 4
-40 15 -40 11 0 15 -11 15 -40 0 -29 4 -40 15 -40 11 0 15 11 15 40 l0 40 40
0 c29 0 40 -4 40 -15 0 -11 11 -15 40 -15 36 0 40 -2 40 -25 0 -24 -2 -25 -70
-25 -38 0 -70 -4 -70 -9 0 -6 14 -18 30 -28 17 -9 30 -23 30 -30 0 -8 14 -13
40 -13 36 0 40 -2 40 -25 0 -22 4 -25 40 -25 22 0 40 5 40 10 0 6 18 10 40 10
36 0 40 -2 40 -25 0 -20 5 -25 25 -25 23 0 25 -4 25 -40 0 -29 4 -40 15 -40
11 0 15 -11 15 -40 l0 -40 50 0 c28 0 50 -4 50 -9 0 -6 14 -18 30 -28 16 -9
30 -23 30 -30 0 -8 14 -13 40 -13 26 0 40 -4 40 -13 0 -7 18 -26 40 -43 34
-25 40 -35 40 -66 0 -38 0 -38 40 -38 29 0 40 -4 40 -15 0 -11 11 -15 40 -15
29 0 40 4 40 15 0 8 5 15 10 15 6 0 10 -18 10 -40 0 -29 4 -40 15 -40 11 0 15
-11 15 -40 0 -36 3 -40 25 -40 23 0 25 -4 25 -40 0 -29 4 -40 15 -40 12 0 15
-16 15 -80 l0 -80 55 0 c48 0 55 -2 55 -20 0 -11 -7 -20 -15 -20 -8 0 -15 -9
-15 -20 0 -15 7 -20 25 -20 23 0 25 -4 25 -40 0 -29 4 -40 15 -40 11 0 15 -11
15 -40 l0 -40 40 0 40 0 0 -40 0 -40 40 0 40 0 0 -40 0 -40 54 0 c34 0 56 5
59 13 2 7 8 8 13 3 5 -5 4 -11 -3 -13 -8 -3 -13 -22 -13 -44 0 -35 3 -39 25
-39 23 0 25 -4 25 -40 l0 -40 40 0 40 0 0 -40 c0 -46 27 -58 32 -14 l3 26 37
-29 c30 -22 37 -35 38 -62 0 -26 8 -41 32 -63 17 -15 35 -28 40 -28 4 0 8 -13
8 -28 0 -21 10 -35 40 -58 34 -25 40 -35 40 -66 l0 -38 50 0 50 0 0 -40 c0
-38 2 -40 30 -40 28 0 30 -2 30 -40 0 -22 5 -40 10 -40 6 0 10 -18 10 -40 l0
-40 40 0 40 0 0 -40 c0 -29 4 -40 15 -40 12 0 15 -16 15 -80 0 -64 3 -80 15
-80 8 0 15 -7 15 -15 0 -11 11 -15 40 -15 29 0 40 4 40 15 0 8 5 15 10 15 6 0
10 -18 10 -40 l0 -40 40 0 40 0 0 -40 0 -40 40 0 c22 0 40 -4 40 -9 0 -6 14
-18 30 -28 25 -14 30 -24 30 -55 0 -38 0 -38 40 -38 29 0 40 -4 40 -15 0 -8
-7 -15 -15 -15 -11 0 -15 -11 -15 -40 0 -29 4 -40 15 -40 11 0 15 11 15 40 0
40 0 40 39 40 22 0 42 6 45 13 5 9 7 9 12 0 3 -7 19 -13 35 -13 l29 0 0 -80 0
-80 80 0 80 0 0 40 c0 33 3 40 20 40 17 0 20 -7 20 -40 0 -33 3 -40 20 -40 11
0 20 -3 20 -8 0 -4 18 -18 40 -32 l40 -25 0 -127 0 -128 -40 0 -40 0 0 -40 0
-40 40 0 40 0 0 -40 0 -40 80 0 80 0 0 40 c0 33 3 40 20 40 17 0 20 -7 20 -40
l0 -40 3020 0 3020 0 0 5120 0 5120 -5120 0 -5120 0 0 -2560z m3272 -1265
c207 -31 369 -123 478 -271 54 -72 82 -140 88 -211 6 -78 -8 -136 -53 -212
-32 -54 -49 -69 -143 -130 -260 -169 -373 -242 -452 -292 -79 -50 -407 -276
-527 -362 -28 -21 -54 -34 -57 -29 -3 5 14 49 38 98 42 87 71 152 155 344 68
156 64 151 307 297 121 71 246 145 279 163 77 42 105 68 105 96 0 21 -35 71
-70 102 -36 32 -140 72 -212 83 -223 33 -483 -120 -523 -308 -5 -26 -18 -38
-68 -66 -130 -72 -164 -92 -242 -140 -44 -27 -88 -56 -97 -65 -28 -24 -31 3
-13 107 30 171 80 300 166 426 118 173 258 277 459 339 144 45 239 53 382 31z
m1516 0 c231 -55 431 -260 489 -505 23 -99 13 -291 -21 -395 -44 -136 -115
-245 -240 -370 -97 -97 -123 -117 -206 -158 -116 -57 -264 -97 -385 -102 -49
-2 -91 -4 -92 -5 -1 0 40 -70 92 -156 52 -86 95 -158 95 -161 0 -2 26 -47 59
-101 175 -289 287 -490 278 -498 -3 -4 -88 -2 -188 2 l-183 9 -56 95 c-31 52
-115 194 -187 315 -72 121 -159 267 -194 325 -36 58 -70 118 -78 135 l-13 29
-17 -23 c-16 -20 -54 -85 -214 -361 -53 -90 -248 -436 -300 -530 -76 -139
-136 -178 -253 -166 -38 4 -86 17 -114 31 -26 13 -51 21 -55 17 -3 -4 -5 -2
-4 3 13 44 -106 140 -220 176 -70 22 -246 37 -278 24 -10 -5 -22 -7 -26 -6 -5
1 -29 -6 -55 -14 -102 -35 -157 -69 -235 -147 l-77 -77 -171 -1 c-94 -1 -173
0 -175 3 -6 6 35 126 53 154 8 12 12 27 8 33 -4 6 -2 9 3 8 15 -5 64 60 56 74
-4 7 -4 10 0 6 11 -9 46 23 39 36 -3 6 -2 8 2 3 11 -10 46 23 38 36 -3 6 -1 7
5 3 7 -4 12 -3 12 2 0 5 25 27 55 47 30 21 52 41 50 45 -3 4 1 7 8 7 6 -1 44
14 82 32 39 18 113 45 165 59 85 24 112 27 255 26 132 0 176 -4 248 -22 98
-24 212 -74 282 -122 51 -35 49 -36 82 25 29 55 195 339 218 375 13 19 34 55
48 80 99 178 411 717 500 864 37 60 67 110 67 112 0 2 20 35 45 74 79 123 188
183 335 184 105 1 142 -7 133 -32 -4 -9 -34 -64 -68 -122 -34 -58 -103 -177
-155 -265 -51 -88 -113 -193 -137 -234 -24 -41 -41 -76 -38 -79 3 -4 78 0 166
6 184 14 308 48 395 106 73 49 169 159 207 235 30 62 32 72 32 176 0 103 -2
114 -31 176 -90 190 -283 244 -523 148 -86 -34 -160 -79 -306 -184 -124 -89
-174 -119 -183 -110 -4 3 4 25 16 48 13 23 48 89 79 147 74 140 144 239 213
303 62 58 194 129 280 151 72 19 209 19 288 1z m3722 10 c0 -5 -36 -70 -90
-165 -41 -70 -191 -337 -232 -410 -32 -57 -357 -630 -585 -1032 -97 -170 -179
-308 -184 -308 -5 0 -48 22 -96 50 -48 27 -107 57 -132 67 -25 9 -48 18 -50
20 -6 4 92 183 264 478 29 50 101 176 160 280 59 105 138 242 175 305 37 63
138 241 225 395 86 154 164 290 171 303 14 21 19 22 194 22 99 0 180 -2 180
-5z m-1318 -30 c81 -28 128 -99 128 -194 0 -53 -29 -119 -124 -286 -62 -108
-179 -315 -229 -405 -31 -55 -216 -378 -322 -560 -43 -74 -101 -175 -130 -225
-60 -104 -224 -376 -235 -388 -4 -4 -26 17 -49 48 -24 31 -72 87 -107 124 -63
67 -73 88 -55 107 5 5 40 63 77 129 36 66 130 226 209 355 155 257 353 589
393 660 14 25 43 74 65 110 22 36 42 69 45 75 9 14 -45 -29 -103 -83 -27 -26
-138 -128 -245 -227 -107 -99 -254 -234 -325 -300 -72 -66 -182 -167 -245
-225 -63 -58 -148 -136 -188 -174 -49 -46 -79 -66 -90 -63 -9 3 -62 22 -117
41 -55 20 -132 41 -172 48 -41 6 -72 15 -71 19 2 3 28 28 59 55 30 27 116 103
189 169 74 66 224 201 335 300 111 99 298 268 416 376 338 309 464 414 544
454 137 70 257 90 347 60z m-7072 -1475 c0 -33 3 -40 20 -40 13 0 20 -7 20
-20 0 -17 -7 -20 -40 -20 l-40 0 0 60 c0 53 2 60 20 60 17 0 20 -7 20 -40z
m5168 -106 c444 -71 803 -389 952 -846 16 -48 30 -104 32 -125 l3 -38 -90 -3
c-49 -2 -121 -1 -160 3 l-70 6 -33 88 c-65 173 -160 307 -297 417 -95 77 -189
124 -309 154 -78 19 -108 22 -240 18 -131 -4 -160 -8 -219 -30 l-67 -26 -39
67 c-71 123 -121 218 -121 230 0 6 10 11 22 11 11 0 98 18 192 39 94 22 182
41 196 44 55 10 155 6 248 -9z m1782 -331 c135 -39 231 -95 331 -193 47 -47
95 -98 105 -113 27 -39 92 -59 208 -65 168 -8 279 31 380 131 32 32 61 56 63
53 9 -9 -24 -179 -46 -236 -26 -70 -90 -147 -160 -194 -78 -52 -164 -76 -275
-76 -178 0 -283 48 -431 195 -177 177 -240 208 -435 209 -97 1 -137 -3 -180
-18 -60 -20 -179 -86 -200 -110 -7 -9 -16 -16 -20 -16 -4 0 -26 43 -50 95
l-43 96 34 36 c91 96 214 177 319 212 111 36 263 34 400 -6z m-6330 -713 c0
-5 -4 -10 -10 -10 -5 0 -10 5 -10 10 0 6 5 10 10 10 6 0 10 -4 10 -10z m500
-80 c0 -6 -9 -10 -20 -10 -13 0 -20 7 -20 20 0 18 3 19 20 10 11 -6 20 -15 20
-20z m80 -80 c0 -6 -9 -10 -20 -10 -13 0 -20 7 -20 20 0 18 3 19 20 10 11 -6
20 -15 20 -20z m-260 -80 c0 -5 -4 -10 -10 -10 -5 0 -10 5 -10 10 0 6 5 10 10
10 6 0 10 -4 10 -10z m140 -210 c0 -22 -4 -40 -10 -40 -5 0 -10 18 -10 40 0
22 5 40 10 40 6 0 10 -18 10 -40z m340 -190 c0 -5 -4 -10 -10 -10 -5 0 -10 5
-10 10 0 6 5 10 10 10 6 0 10 -4 10 -10z m420 -160 c0 -6 -9 -10 -20 -10 -13
0 -20 7 -20 20 0 18 3 19 20 10 11 -6 20 -15 20 -20z m-180 0 c0 -5 -4 -10
-10 -10 -5 0 -10 5 -10 10 0 6 5 10 10 10 6 0 10 -4 10 -10z m843 -807 c-13
-2 -33 -2 -45 0 -13 2 -3 4 22 4 25 0 35 -2 23 -4z m297 -313 c0 -6 -9 -10
-20 -10 -17 0 -20 -7 -20 -40 0 -33 -3 -40 -20 -40 -17 0 -20 7 -20 40 0 33 3
40 20 40 13 0 20 7 20 20 0 18 3 19 20 10 11 -6 20 -15 20 -20z m-193 -152
c-2 -13 -4 -3 -4 22 0 25 2 35 4 23 2 -13 2 -33 0 -45z m733 -888 c0 -5 -4
-10 -10 -10 -5 0 -10 5 -10 10 0 6 5 10 10 10 6 0 10 -4 10 -10z m80 -80 c0
-5 -4 -10 -10 -10 -5 0 -10 5 -10 10 0 6 5 10 10 10 6 0 10 -4 10 -10z m580
-530 c0 -38 -2 -40 -30 -40 -28 0 -30 2 -30 40 0 38 2 40 30 40 28 0 30 -2 30
-40z"/>
<path d="M1150 2920 c0 -22 5 -40 10 -40 6 0 10 18 10 40 0 22 -4 40 -10 40
-5 0 -10 -18 -10 -40z"/>
<path d="M1490 2871 c0 -5 7 -11 15 -15 9 -3 15 0 15 9 0 8 -7 15 -15 15 -8 0
-15 -4 -15 -9z"/>
<path d="M2586 1185 c4 -8 10 -15 14 -15 4 0 10 7 14 15 4 10 -1 15 -14 15
-13 0 -18 -5 -14 -15z"/>
<path d="M2690 1191 c0 -5 7 -11 15 -15 9 -3 15 0 15 9 0 8 -7 15 -15 15 -8 0
-15 -4 -15 -9z"/>
<path d="M2930 791 c0 -5 7 -11 15 -15 9 -3 15 0 15 9 0 8 -7 15 -15 15 -8 0
-15 -4 -15 -9z"/>
<path d="M3490 311 c0 -5 7 -11 15 -15 9 -3 15 0 15 9 0 8 -7 15 -15 15 -8 0
-15 -4 -15 -9z"/>
<path d="M3810 260 c0 -11 7 -20 15 -20 8 0 15 9 15 20 0 11 -7 20 -15 20 -8
0 -15 -9 -15 -20z"/>
</g>
</svg>
